<?xml version="1.0" encoding="utf-8"?>
<!-- Generator: Adobe Illustrator 17.0.0, SVG Export Plug-In . SVG Version: 6.00 Build 0)  -->
<!DOCTYPE svg PUBLIC "-//W3C//DTD SVG 1.1 Tiny//EN" "http://www.w3.org/Graphics/SVG/1.1/DTD/svg11-tiny.dtd">
<svg version="1.1" baseProfile="tiny" id="Layer_1" xmlns="http://www.w3.org/2000/svg" xmlns:xlink="http://www.w3.org/1999/xlink"
	 x="0px" y="0px" width="1080px" height="1080px" viewBox="0 0 1080 1080" xml:space="preserve">
<g>
	<path fill="#FD5858" d="M495.444,601.297c-4.736-4.726-9.472-9.451-14.208-14.178c0.069-0.565-0.045-0.988-0.742-0.96
		c0,0,0.053,0.052,0.053,0.052c0.065-0.591-0.032-1.025-0.791-0.811c0,0,0.057,0.061,0.057,0.061c0.452-0.926-0.059-1.3-0.863-1.506
		c0,0,0.04,0.05,0.04,0.05c-3.827-7.516-8.107-14.831-10.254-23.093c-0.772-3.776-1.773-7.513-1.951-11.391
		c10.8,0,21.6-0.001,32.4-0.001c2.898,16.747,16.925,30.771,33.805,33.8c0.328,10.805,0.329,21.609,0.001,32.414
		c-4.012-0.627-8.024-1.254-12.036-1.881c0,0,0.081,0.134,0.081,0.134c-0.164-0.168-0.328-0.337-0.492-0.505
		c-7.871-2.228-14.931-6.245-22.103-10.015c0,0,0.053,0.042,0.053,0.042c-0.208-0.798-0.614-1.251-1.503-0.864
		c0,0,0.06,0.055,0.06,0.055c0.185-0.734-0.258-0.821-0.815-0.791c0,0,0.055,0.052,0.055,0.052
		C496.307,601.359,495.967,601.212,495.444,601.297z"/>
	<path fill="#FD5858" d="M481.224,495.356c4.717-4.716,9.435-9.431,14.152-14.147c0.588,0.131,0.993,0.023,0.921-0.706
		c0,0-0.058,0.052-0.058,0.052c0.86,0.325,1.247-0.158,1.497-0.875c0,0-0.058,0.045-0.058,0.045
		c0.518-0.001,0.874-0.171,0.812-0.778c0,0-0.045,0.043-0.045,0.043c7.251-3.553,14.15-7.89,22.086-9.917
		c0.496-0.035,1.033,0.014,1.253-0.599c0,0-0.085,0.052-0.085,0.052c3.763-0.582,7.527-1.165,11.29-1.747
		c0.334,10.812,0.331,21.625,0.001,32.437c-17.383,3.456-30.659,16.67-33.875,33.719c-10.855,0.009-21.711,0.018-32.566,0.028
		c0.655-3.885,1.31-7.77,1.965-11.655c1.495-3.805,2.824-7.685,4.529-11.393c1.797-3.906,3.953-7.648,5.952-11.461
		c0,0-0.042,0.044-0.042,0.044c0.634,0.082,0.771-0.304,0.769-0.819c0,0-0.044,0.059-0.044,0.059
		c0.749-0.236,1.043-0.734,0.868-1.504c0,0-0.054,0.06-0.054,0.06C481.147,496.3,481.29,495.91,481.224,495.356z"/>
	<path fill="#FD5858" d="M600.517,587.797c-1.573,1.65-3.145,3.301-4.717,4.95c-0.249,0.314-0.497,0.628-0.746,0.943
		c0,0,0.124-0.112,0.123-0.112c-0.282,0.281-0.563,0.561-0.844,0.841c0,0,0.086-0.086,0.085-0.086
		c-0.279,0.279-0.556,0.557-0.834,0.835c0,0,0.085-0.085,0.084-0.084c-0.286,0.282-0.571,0.564-0.856,0.846
		c0,0,0.143-0.124,0.143-0.124c-0.965,0.291-1.658,0.931-2.226,1.731c0,0,0.064-0.046,0.064-0.045
		c-0.273,0.26-0.547,0.521-0.82,0.781c0,0,0.053-0.046,0.053-0.045c-0.272,0.264-0.544,0.527-0.817,0.79l0.061-0.057
		c-8.223,6.302-17.193,11.199-27.061,14.413c-0.404,0.018-0.853-0.025-0.803,0.6l0.081-0.073c-4.001,0.558-8.001,1.117-12.002,1.675
		c-0.311-10.777-0.308-21.553,0-32.33c16.678-2.869,30.693-16.866,33.771-33.725c10.794-0.003,21.587-0.005,32.381-0.008
		c-0.581,3.989-1.161,7.979-1.742,11.968l0.073-0.081c-0.681-0.112-0.587,0.388-0.62,0.786c-2.405,6.891-5.325,13.531-9.188,19.758
		C602.95,583.897,600.907,585.342,600.517,587.797z"/>
	<path fill="#FD5858" d="M587.212,481.299c4.653,4.657,9.305,9.314,13.958,13.971c-0.137,0.184-0.428,0.486-0.39,0.534
		c5.692,7.355,9.452,15.696,12.502,24.402c0.644,4.26,2.056,8.387,2.216,12.731c-10.743-0.002-21.486-0.004-32.229-0.005
		c-3.522-17.424-17.545-31.44-33.785-33.767c-0.304-10.811-0.31-21.622,0.001-32.433c4.069,0.451,8.095,1.122,12.005,2.377
		c9.006,2.445,17.269,6.387,24.571,12.245C586.54,481.739,586.852,481.842,587.212,481.299z"/>
	<path fill="#FBFCFD" d="M613.281,520.206c-3.05-8.706-6.81-17.047-12.502-24.402c-0.037-0.048,0.253-0.351,0.39-0.534
		c1.373,0.454,2.22,1.578,3.183,2.54c11.474,11.461,22.947,22.925,34.405,34.402c6.541,6.552,6.585,11.426,0.142,17.884
		c-11.807,11.834-23.634,23.649-35.465,35.459c-0.868,0.867-1.588,1.96-2.917,2.242c0.39-2.455,2.433-3.901,3.643-5.852
		c3.863-6.227,6.782-12.866,9.188-19.758c0.207-0.262,0.414-0.524,0.62-0.786l-0.073,0.081c5.425-4.561,10.251-9.744,15.09-14.887
		c3.017-3.207,2.811-7.868-0.363-11.178C623.639,530.221,618.407,525.264,613.281,520.206z"/>
	<path fill="#FBFCFD" d="M562.209,613.374c9.867-3.214,18.838-8.112,27.061-14.413c-0.156,1.405-1.366,2.033-2.216,2.885
		c-12.347,12.39-24.715,24.76-37.096,37.117c-5.997,5.985-11.093,5.981-17.083,0.002c-10.788-10.769-21.577-21.537-32.306-32.365
		c-0.859-0.867-2.494-1.373-2.129-3.132c7.172,3.77,14.232,7.787,22.103,10.015c0.197,0.139,0.361,0.307,0.492,0.505
		c0,0-0.081-0.134-0.08-0.134c4.726,4.773,9.389,9.611,14.199,14.298c3.469,3.38,8.218,3.884,11.468,0.869
		c5.178-4.803,10.341-9.656,14.864-15.119c0,0-0.081,0.073-0.081,0.072C561.674,613.774,561.941,613.574,562.209,613.374z"/>
	<path fill="#FBFCFD" d="M587.212,481.299c-0.36,0.543-0.672,0.441-1.151,0.056c-7.302-5.858-15.565-9.8-24.571-12.245
		c-0.063-0.363,0.005-0.857-0.208-1.071c-4.911-4.956-9.695-10.054-14.853-14.739c-2.594-2.356-6.318-2.559-9.063-0.47
		c-5.904,4.491-11.218,9.691-15.666,15.695c0,0,0.085-0.052,0.085-0.052c-0.607-0.196-0.916,0.23-1.253,0.599
		c-7.936,2.028-14.835,6.365-22.086,9.917c-0.435-1.618,1.066-2.087,1.844-2.87c10.91-10.982,21.856-21.928,32.827-32.849
		c5.718-5.692,10.879-5.711,16.548-0.071c11.771,11.709,23.518,23.444,35.25,35.193
		C585.782,479.259,586.451,480.325,587.212,481.299z"/>
	<path fill="#FBFCFD" d="M478.995,498.452c-1.999,3.813-4.155,7.554-5.952,11.461c-1.705,3.708-3.035,7.588-4.53,11.393
		c-4.795,4.736-9.671,9.395-14.355,14.238c-2.668,2.758-3.4,7.363-1.098,9.987c4.825,5.502,9.751,10.971,15.677,15.382
		c2.146,8.262,6.427,15.577,10.254,23.093c-1.62,0.442-2.087-1.063-2.869-1.84c-10.986-10.909-21.933-21.857-32.862-32.824
		c-5.477-5.496-5.476-10.738,0.006-16.238c10.928-10.967,21.876-21.914,32.863-32.823
		C476.908,499.507,477.37,497.992,478.995,498.452z"/>
	<path fill="#FBFCFD" d="M590.728,597.537c0.569-0.8,1.262-1.44,2.226-1.731C592.321,596.522,591.83,597.423,590.728,597.537z"/>
	<path fill="#FBFCFD" d="M497.736,479.68c-0.25,0.717-0.637,1.2-1.497,0.875C496.541,479.926,496.775,479.181,497.736,479.68z"/>
	<path fill="#FBFCFD" d="M480.548,496.233c0.174,0.769-0.119,1.268-0.868,1.504C479.178,496.779,479.927,496.543,480.548,496.233z"
		/>
	<path fill="#FBFCFD" d="M478.951,583.955c0.804,0.206,1.314,0.58,0.863,1.506C479.191,585.151,478.392,584.942,478.951,583.955z"/>
	<path fill="#FBFCFD" d="M595.053,593.69c0.249-0.314,0.498-0.629,0.746-0.943C595.551,593.062,595.302,593.376,595.053,593.69z"/>
	<path fill="#FBFCFD" d="M496.991,602.645c0.889-0.387,1.295,0.066,1.503,0.864C497.516,604.049,497.299,603.267,496.991,602.645z"
		/>
	<path fill="#FBFCFD" d="M479.756,585.4c0.76-0.213,0.856,0.221,0.791,0.811C480.284,585.941,480.02,585.671,479.756,585.4z"/>
	<path fill="#FBFCFD" d="M480.495,586.159c0.696-0.028,0.811,0.395,0.742,0.96C480.99,586.8,480.742,586.48,480.495,586.159z"/>
	<path fill="#FBFCFD" d="M481.224,495.356c0.066,0.554-0.077,0.944-0.731,0.937C480.737,495.98,480.981,495.668,481.224,495.356z"/>
	<path fill="#FBFCFD" d="M594.332,594.419c0.281-0.28,0.562-0.56,0.844-0.841C594.896,593.858,594.614,594.139,594.332,594.419z"/>
	<path fill="#FBFCFD" d="M593.584,595.168c0.278-0.278,0.555-0.556,0.834-0.835C594.14,594.611,593.862,594.89,593.584,595.168z"/>
	<path fill="#FBFCFD" d="M479.723,497.678c0.001,0.515-0.136,0.9-0.769,0.819C478.694,497.739,478.999,497.512,479.723,497.678z"/>
	<path fill="#FBFCFD" d="M589.972,598.273c0.273-0.26,0.547-0.52,0.82-0.781C590.763,598.008,590.498,598.278,589.972,598.273z"/>
	<path fill="#FBFCFD" d="M589.209,599.018c0.272-0.263,0.544-0.527,0.817-0.79C590.016,598.762,589.75,599.031,589.209,599.018z"/>
	<path fill="#FBFCFD" d="M498.491,478.947c0.062,0.607-0.294,0.777-0.812,0.778C497.502,478.999,497.741,478.706,498.491,478.947z"
		/>
	<path fill="#FBFCFD" d="M592.812,595.93c0.285-0.282,0.57-0.564,0.856-0.846C593.383,595.366,593.097,595.648,592.812,595.93z"/>
	<path fill="#FBFCFD" d="M496.236,601.909c0.557-0.031,1,0.057,0.815,0.791C496.779,602.436,496.508,602.172,496.236,601.909z"/>
	<path fill="#FBFCFD" d="M496.297,480.503c0.072,0.729-0.332,0.837-0.921,0.706C495.683,480.974,495.99,480.738,496.297,480.503z"/>
	<path fill="#FBFCFD" d="M495.444,601.297c0.522-0.085,0.862,0.062,0.847,0.664C496.009,601.74,495.727,601.518,495.444,601.297z"/>
	<path fill="#FBFCFD" d="M499.114,532.934c1.621,0.061,2.39,0.746,2.339,2.522c-0.11,3.824-0.105,7.656-0.001,11.481
		c0.047,1.716-0.586,2.533-2.266,2.585c-10.8,0-21.6,0.001-32.4,0.001c-1.082-5.506-0.593-11.034-0.238-16.561
		C477.404,532.952,488.259,532.943,499.114,532.934z"/>
	<path fill="#FBFCFD" d="M532.991,583.321c0.113-1.537,0.632-2.453,2.482-2.391c3.825,0.129,7.661,0.129,11.487-0.001
		c1.799-0.061,2.46,0.699,2.525,2.319c-0.307,10.777-0.31,21.553,0,32.33c-5.487,1.121-10.988,0.892-16.493,0.157
		C533.32,604.93,533.319,594.126,532.991,583.321z"/>
	<path fill="#38B5FE" d="M521.036,613.987c-0.131-0.198-0.295-0.366-0.492-0.505C520.708,613.651,520.872,613.819,521.036,613.987z"
		/>
	<path fill="#FBFCFD" d="M549.483,499.165c-0.154,1.374-0.651,2.255-2.3,2.222c-3.944-0.079-7.893-0.081-11.837,0.003
		c-1.621,0.034-2.183-0.788-2.357-2.175c0.33-10.812,0.333-21.625-0.001-32.437c5.496-0.913,10.995-0.85,16.496-0.045
		C549.173,477.543,549.179,488.354,549.483,499.165z"/>
	<path fill="#38B5FE" d="M520.531,469.072c0.337-0.369,0.646-0.795,1.253-0.599C521.564,469.086,521.027,469.037,520.531,469.072z"
		/>
	<path fill="#FBFCFD" d="M583.256,549.522c-1.667-0.047-2.327-0.828-2.278-2.56c0.109-3.824,0.11-7.656,0-11.481
		c-0.05-1.743,0.633-2.501,2.291-2.549c10.743,0.002,21.486,0.004,32.229,0.005c1.277,5.515,1.006,11.043,0.14,16.576
		C604.843,549.517,594.049,549.519,583.256,549.522z"/>
	<path fill="#38B5FE" d="M613.968,561.401c-0.207,0.262-0.414,0.524-0.62,0.786C613.382,561.789,613.288,561.29,613.968,561.401z"/>
	<path fill="#38B5FE" d="M562.209,613.374c-0.268,0.2-0.535,0.4-0.803,0.6C561.356,613.349,561.805,613.392,562.209,613.374z"/>
</g>
</svg>
